# xmcd
#
# Track frame offsets: 
#        150
#        16771
#        28395
#        39392
#        55390
#        67074
#        79751
#        92013
#        100460
#        112946
#        127942
#        147074
#        158952
#        177996
#        188566
#
# Disc length: 2689 seconds
#
# Revision: 0
# Processed by: cddbd v1.5.1PL0 Copyright (c) Steve Scherf et al.
# Submitted via: ExactAudioCopy v0.95a5
#
DISCID=c30a7f0f
DTITLE=Marty Robbins - The Great Marty Robbins Disk 3
DYEAR=2003
DGENRE=Classic Country
TTITLE0=Ballad Of The Alamo
TTITLE1=Among My Souvenirs
TTITLE2=I Don't Know Why (I Just Do It)
TTITLE3=My Woman, My Woman, My Wife
TTITLE4=That's All Right
TTITLE5=Mister Teardrop
TTITLE6=Smokin' Cigarettes And Drinkin' Coffee Blues
TTITLE7=I'm Gonna Be A Cowboy
TTITLE8=Tonight Carmen
TTITLE9=I Walk Alone
TTITLE10=The Chair
TTITLE11=The Girl With Gardenias In Her Hair
TTITLE12=El Paso City
TTITLE13=Unchained Melody
TTITLE14=Return To Me
EXTD=
EXTT0=
EXTT1=
EXTT2=
EXTT3=
EXTT4=
EXTT5=
EXTT6=
EXTT7=
EXTT8=
EXTT9=
EXTT10=
EXTT11=
EXTT12=
EXTT13=
EXTT14=
PLAYORDER=
